<?xml version="1.0" encoding="utf-8"?>
<!-- Generator: Adobe Illustrator 20.0.0, SVG Export Plug-In . SVG Version: 6.00 Build 0)  -->
<svg version="1.1" id="Layer_1" xmlns="http://www.w3.org/2000/svg" xmlns:xlink="http://www.w3.org/1999/xlink" x="0px" y="0px"
	 viewBox="0 0 1024 1024" style="enable-background:new 0 0 1024 1024;" xml:space="preserve">
<style type="text/css">
	.st0{fill:#FBB03B;}
	.st1{fill:none;stroke:#000000;stroke-miterlimit:10;}
	.st2{fill:#F7931E;}
</style>
<rect x="137" y="375" class="st0" width="749" height="275"/>
<line class="st1" x1="886.5" y1="650" x2="886.5" y2="649"/>
<line class="st1" x1="886.5" y1="887" x2="886.5" y2="887"/>
<line class="st1" x1="886.5" y1="137" x2="886.5" y2="137"/>
<line class="st1" x1="886.5" y1="375" x2="886.5" y2="375"/>
<polygon class="st2" points="886,137 886,375 649,375 649,0 "/>
<line class="st1" x1="886.8" y1="137.2" x2="886.5" y2="137"/>
<line class="st1" x1="886.8" y1="886.8" x2="886.5" y2="887"/>
<polygon class="st2" points="886,650 886,887 649,1024 649,650 "/>
<line class="st1" x1="649.5" y1="650" x2="649.5" y2="649"/>
<line class="st1" x1="649.5" y1="375" x2="649.5" y2="375"/>
<polygon class="st2" points="137,137 137,375 374,375 374,0 "/>
<polygon class="st2" points="137,650 137,887 374,1024 374,650 "/>
</svg>
