<?xml version="1.0" standalone="no"?>
<!DOCTYPE svg PUBLIC "-//W3C//DTD SVG 20010904//EN"
 "http://www.w3.org/TR/2001/REC-SVG-20010904/DTD/svg10.dtd">
<svg version="1.0" xmlns="http://www.w3.org/2000/svg"
 width="700.000000pt" height="700.000000pt" viewBox="0 0 700.000000 700.000000"
 preserveAspectRatio="xMidYMid meet">
<metadata>
Created by potrace 1.11, written by Peter Selinger 2001-2013
</metadata>
<g transform="translate(0.000000,700.000000) scale(0.100000,-0.100000)"
fill="#000000" stroke="none">
<path d="M2106 6740 c-246 -143 -452 -260 -457 -260 -5 0 -9 -4 -9 -10 0 -5
-4 -10 -9 -10 -6 0 -60 -29 -121 -65 -61 -36 -130 -76 -153 -89 -23 -13 -127
-73 -232 -133 l-189 -110 -1 -2562 0 -2562 37 -24 c21 -14 40 -25 42 -25 3 0
40 -21 83 -46 43 -25 107 -62 143 -82 36 -19 72 -41 81 -48 8 -8 18 -14 21
-14 3 0 65 -35 139 -78 74 -43 154 -90 179 -104 47 -27 229 -131 419 -242 62
-36 116 -66 119 -66 3 0 13 -6 21 -14 9 -7 42 -27 73 -44 32 -17 100 -56 152
-87 52 -30 98 -55 103 -55 5 0 9 541 8 1266 0 832 3 1268 10 1273 6 4 429 7
940 7 l930 -1 0 -1273 c0 -1155 1 -1273 16 -1269 8 2 206 115 440 250 233 135
438 253 456 264 18 10 106 60 195 112 90 52 179 103 198 114 19 10 40 23 45
27 6 4 30 18 55 32 125 69 210 122 212 132 0 6 2 1162 2 2568 l2 2557 -24 10
c-13 6 -123 69 -245 140 -122 71 -238 138 -257 149 -42 23 -569 328 -660 382
-111 65 -313 182 -360 208 -25 13 -50 29 -57 34 -6 5 -13 5 -15 1 -2 -4 -4
-581 -3 -1280 0 -871 -3 -1273 -10 -1274 -52 -5 -1852 -3 -1860 2 -7 5 -10
443 -9 1283 0 702 0 1276 0 1276 -1 0 -203 -117 -450 -260z"/>
</g>
</svg>
